<mxfile host="app.diagrams.net" modified="2023-09-23T20:35:52.783Z" agent="Mozilla/5.0 (Windows NT 10.0; Win64; x64) AppleWebKit/537.36 (KHTML, like Gecko) Chrome/117.0.0.0 Safari/537.36" etag="NCj_rRn2m6fPNe0ohWzW" version="21.8.1" type="device" pages="2">
  <diagram name="Conceitual" id="PpvaITwudYntOWfG7xUz">
    <mxGraphModel dx="1434" dy="750" grid="1" gridSize="10" guides="1" tooltips="1" connect="1" arrows="1" fold="1" page="1" pageScale="1" pageWidth="827" pageHeight="1169" math="0" shadow="0">
      <root>
        <mxCell id="0" />
        <mxCell id="1" parent="0" />
        <mxCell id="VP5QRZigwVn8IC2Cg253-1" value="Sistema Web&#xa;Perfis de usuário:&#xa;1. Administrador: Área administrativa da escola;&#xa;2. Comum: Pode ser um espectador ou palestrante.&#xa;Funcionalidades:&#xa;1. O administrador poderá cadastrar qualquer tipo de usuário;&#xa;2. O administrador poderá cadastrar os tipos de eventos;&#xa;3. Qualquer usuário autenticado poderá ver todos os eventos cadastrados;&#xa;4. O usuário comum poderá ver os eventos que participará;&#xa;5. O usuário comum poderá se inscrever para assistir a um evento ou cancelar a sua inscrição" style="text;whiteSpace=wrap;labelBackgroundColor=none;fontColor=#1D3557;" parent="1" vertex="1">
          <mxGeometry width="560" height="170" as="geometry" />
        </mxCell>
        <mxCell id="486M2q-yROrSLdvB-Rcd-2" style="edgeStyle=orthogonalEdgeStyle;rounded=0;orthogonalLoop=1;jettySize=auto;html=1;entryX=0;entryY=0.5;entryDx=0;entryDy=0;endArrow=none;endFill=0;labelBackgroundColor=none;strokeColor=#457B9D;fontColor=default;" parent="1" source="486M2q-yROrSLdvB-Rcd-4" target="486M2q-yROrSLdvB-Rcd-19" edge="1">
          <mxGeometry relative="1" as="geometry" />
        </mxCell>
        <mxCell id="486M2q-yROrSLdvB-Rcd-3" style="edgeStyle=orthogonalEdgeStyle;rounded=0;orthogonalLoop=1;jettySize=auto;html=1;endArrow=none;endFill=0;labelBackgroundColor=none;strokeColor=#457B9D;fontColor=default;" parent="1" source="486M2q-yROrSLdvB-Rcd-4" target="486M2q-yROrSLdvB-Rcd-25" edge="1">
          <mxGeometry relative="1" as="geometry" />
        </mxCell>
        <mxCell id="486M2q-yROrSLdvB-Rcd-4" value="&lt;font style=&quot;font-size: 14px;&quot;&gt;&lt;font style=&quot;vertical-align: inherit;&quot;&gt;&lt;font style=&quot;vertical-align: inherit;&quot;&gt;&lt;font style=&quot;vertical-align: inherit;&quot;&gt;&lt;font style=&quot;vertical-align: inherit;&quot;&gt;&lt;font style=&quot;vertical-align: inherit;&quot;&gt;&lt;font style=&quot;vertical-align: inherit;&quot;&gt;&lt;font style=&quot;vertical-align: inherit;&quot;&gt;&lt;font style=&quot;vertical-align: inherit;&quot;&gt;Usuario&lt;/font&gt;&lt;/font&gt;&lt;/font&gt;&lt;/font&gt;&lt;/font&gt;&lt;/font&gt;&lt;/font&gt;&lt;/font&gt;&lt;/font&gt;" style="rounded=0;whiteSpace=wrap;html=1;labelBackgroundColor=none;fontSize=14;fillColor=#A8DADC;strokeColor=#457B9D;gradientDirection=east;fontColor=#1D3557;" parent="1" vertex="1">
          <mxGeometry x="363.23" y="202.5" width="103.53" height="55" as="geometry" />
        </mxCell>
        <mxCell id="486M2q-yROrSLdvB-Rcd-5" style="edgeStyle=orthogonalEdgeStyle;rounded=0;orthogonalLoop=1;jettySize=auto;html=1;entryX=0;entryY=0.5;entryDx=0;entryDy=0;endArrow=none;endFill=0;labelBackgroundColor=none;strokeColor=#457B9D;fontColor=default;" parent="1" source="486M2q-yROrSLdvB-Rcd-6" target="486M2q-yROrSLdvB-Rcd-17" edge="1">
          <mxGeometry relative="1" as="geometry" />
        </mxCell>
        <mxCell id="486M2q-yROrSLdvB-Rcd-6" value="&lt;font style=&quot;font-size: 14px;&quot;&gt;&lt;font style=&quot;vertical-align: inherit;&quot;&gt;&lt;font style=&quot;vertical-align: inherit;&quot;&gt;&lt;font style=&quot;vertical-align: inherit;&quot;&gt;&lt;font style=&quot;vertical-align: inherit;&quot;&gt;&lt;font style=&quot;vertical-align: inherit;&quot;&gt;&lt;font style=&quot;vertical-align: inherit;&quot;&gt;&lt;font style=&quot;vertical-align: inherit;&quot;&gt;&lt;font style=&quot;vertical-align: inherit;&quot;&gt;&lt;font style=&quot;vertical-align: inherit;&quot;&gt;&lt;font style=&quot;vertical-align: inherit;&quot;&gt;TipoDeUsuario&lt;/font&gt;&lt;/font&gt;&lt;/font&gt;&lt;/font&gt;&lt;/font&gt;&lt;/font&gt;&lt;/font&gt;&lt;/font&gt;&lt;/font&gt;&lt;/font&gt;&lt;/font&gt;" style="rounded=0;whiteSpace=wrap;html=1;labelBackgroundColor=none;fontSize=14;fillColor=#A8DADC;strokeColor=#457B9D;gradientDirection=east;fontColor=#1D3557;" parent="1" vertex="1">
          <mxGeometry y="202.5" width="103.53" height="55" as="geometry" />
        </mxCell>
        <mxCell id="486M2q-yROrSLdvB-Rcd-7" style="edgeStyle=orthogonalEdgeStyle;rounded=0;orthogonalLoop=1;jettySize=auto;html=1;entryX=1;entryY=0.5;entryDx=0;entryDy=0;endArrow=none;endFill=0;labelBackgroundColor=none;strokeColor=#457B9D;fontColor=default;" parent="1" source="486M2q-yROrSLdvB-Rcd-9" target="486M2q-yROrSLdvB-Rcd-23" edge="1">
          <mxGeometry relative="1" as="geometry" />
        </mxCell>
        <mxCell id="486M2q-yROrSLdvB-Rcd-8" style="edgeStyle=orthogonalEdgeStyle;rounded=0;orthogonalLoop=1;jettySize=auto;html=1;entryX=0.5;entryY=0;entryDx=0;entryDy=0;endArrow=none;endFill=0;labelBackgroundColor=none;strokeColor=#457B9D;fontColor=default;" parent="1" source="486M2q-yROrSLdvB-Rcd-9" target="486M2q-yROrSLdvB-Rcd-40" edge="1">
          <mxGeometry relative="1" as="geometry" />
        </mxCell>
        <mxCell id="486M2q-yROrSLdvB-Rcd-9" value="&lt;font style=&quot;font-size: 14px;&quot;&gt;&lt;font style=&quot;vertical-align: inherit;&quot;&gt;&lt;font style=&quot;vertical-align: inherit;&quot;&gt;&lt;font style=&quot;vertical-align: inherit;&quot;&gt;&lt;font style=&quot;vertical-align: inherit;&quot;&gt;&lt;font style=&quot;vertical-align: inherit;&quot;&gt;&lt;font style=&quot;vertical-align: inherit;&quot;&gt;&lt;font style=&quot;vertical-align: inherit;&quot;&gt;&lt;font style=&quot;vertical-align: inherit;&quot;&gt;&lt;font style=&quot;vertical-align: inherit;&quot;&gt;&lt;font style=&quot;vertical-align: inherit;&quot;&gt;Evento&lt;/font&gt;&lt;/font&gt;&lt;/font&gt;&lt;/font&gt;&lt;/font&gt;&lt;/font&gt;&lt;/font&gt;&lt;/font&gt;&lt;/font&gt;&lt;/font&gt;&lt;/font&gt;" style="rounded=0;whiteSpace=wrap;html=1;labelBackgroundColor=none;fontSize=14;fillColor=#A8DADC;strokeColor=#457B9D;gradientDirection=east;fontColor=#1D3557;" parent="1" vertex="1">
          <mxGeometry x="362.77" y="550" width="103.53" height="55" as="geometry" />
        </mxCell>
        <mxCell id="486M2q-yROrSLdvB-Rcd-10" value="&lt;font style=&quot;font-size: 14px;&quot;&gt;&lt;font style=&quot;vertical-align: inherit;&quot;&gt;&lt;font style=&quot;vertical-align: inherit;&quot;&gt;&lt;font style=&quot;vertical-align: inherit;&quot;&gt;&lt;font style=&quot;vertical-align: inherit;&quot;&gt;&lt;font style=&quot;vertical-align: inherit;&quot;&gt;&lt;font style=&quot;vertical-align: inherit;&quot;&gt;&lt;font style=&quot;vertical-align: inherit;&quot;&gt;&lt;font style=&quot;vertical-align: inherit;&quot;&gt;&lt;font style=&quot;vertical-align: inherit;&quot;&gt;&lt;font style=&quot;vertical-align: inherit;&quot;&gt;TipoDeEvento&lt;/font&gt;&lt;/font&gt;&lt;/font&gt;&lt;/font&gt;&lt;/font&gt;&lt;/font&gt;&lt;/font&gt;&lt;/font&gt;&lt;/font&gt;&lt;/font&gt;&lt;/font&gt;" style="rounded=0;whiteSpace=wrap;html=1;labelBackgroundColor=none;fontSize=14;fillColor=#A8DADC;strokeColor=#457B9D;gradientDirection=east;fontColor=#1D3557;" parent="1" vertex="1">
          <mxGeometry y="550" width="103.53" height="55" as="geometry" />
        </mxCell>
        <mxCell id="486M2q-yROrSLdvB-Rcd-11" style="edgeStyle=orthogonalEdgeStyle;rounded=0;orthogonalLoop=1;jettySize=auto;html=1;entryX=0.5;entryY=0;entryDx=0;entryDy=0;endArrow=none;endFill=0;labelBackgroundColor=none;strokeColor=#457B9D;fontColor=default;" parent="1" source="486M2q-yROrSLdvB-Rcd-12" target="486M2q-yROrSLdvB-Rcd-21" edge="1">
          <mxGeometry relative="1" as="geometry" />
        </mxCell>
        <mxCell id="486M2q-yROrSLdvB-Rcd-12" value="&lt;font style=&quot;font-size: 14px;&quot;&gt;&lt;font style=&quot;vertical-align: inherit;&quot;&gt;&lt;font style=&quot;vertical-align: inherit;&quot;&gt;&lt;font style=&quot;vertical-align: inherit;&quot;&gt;&lt;font style=&quot;vertical-align: inherit;&quot;&gt;&lt;font style=&quot;vertical-align: inherit;&quot;&gt;&lt;font style=&quot;vertical-align: inherit;&quot;&gt;&lt;font style=&quot;vertical-align: inherit;&quot;&gt;&lt;font style=&quot;vertical-align: inherit;&quot;&gt;&lt;font style=&quot;vertical-align: inherit;&quot;&gt;&lt;font style=&quot;vertical-align: inherit;&quot;&gt;&lt;font style=&quot;vertical-align: inherit;&quot;&gt;&lt;font style=&quot;vertical-align: inherit;&quot;&gt;&lt;font style=&quot;vertical-align: inherit;&quot;&gt;&lt;font style=&quot;vertical-align: inherit;&quot;&gt;PresencasDeEvento&lt;/font&gt;&lt;/font&gt;&lt;/font&gt;&lt;/font&gt;&lt;/font&gt;&lt;/font&gt;&lt;/font&gt;&lt;/font&gt;&lt;/font&gt;&lt;/font&gt;&lt;/font&gt;&lt;/font&gt;&lt;/font&gt;&lt;/font&gt;&lt;/font&gt;" style="rounded=0;whiteSpace=wrap;html=1;labelBackgroundColor=none;fontSize=14;fillColor=#A8DADC;strokeColor=#457B9D;gradientDirection=east;fontColor=#1D3557;" parent="1" vertex="1">
          <mxGeometry x="520.01" y="377.5" width="150" height="55" as="geometry" />
        </mxCell>
        <mxCell id="486M2q-yROrSLdvB-Rcd-13" style="edgeStyle=orthogonalEdgeStyle;rounded=0;orthogonalLoop=1;jettySize=auto;html=1;entryX=0.5;entryY=0;entryDx=0;entryDy=0;endArrow=none;endFill=0;labelBackgroundColor=none;strokeColor=#457B9D;fontColor=default;" parent="1" source="486M2q-yROrSLdvB-Rcd-14" target="486M2q-yROrSLdvB-Rcd-27" edge="1">
          <mxGeometry relative="1" as="geometry" />
        </mxCell>
        <mxCell id="486M2q-yROrSLdvB-Rcd-14" value="&lt;font style=&quot;font-size: 14px;&quot;&gt;&lt;font style=&quot;vertical-align: inherit;&quot;&gt;&lt;font style=&quot;vertical-align: inherit;&quot;&gt;&lt;font style=&quot;vertical-align: inherit;&quot;&gt;&lt;font style=&quot;vertical-align: inherit;&quot;&gt;&lt;font style=&quot;vertical-align: inherit;&quot;&gt;&lt;font style=&quot;vertical-align: inherit;&quot;&gt;&lt;font style=&quot;vertical-align: inherit;&quot;&gt;&lt;font style=&quot;vertical-align: inherit;&quot;&gt;&lt;font style=&quot;vertical-align: inherit;&quot;&gt;&lt;font style=&quot;vertical-align: inherit;&quot;&gt;&lt;font style=&quot;vertical-align: inherit;&quot;&gt;&lt;font style=&quot;vertical-align: inherit;&quot;&gt;Comentario&lt;/font&gt;&lt;/font&gt;&lt;/font&gt;&lt;/font&gt;&lt;/font&gt;&lt;/font&gt;&lt;/font&gt;&lt;/font&gt;&lt;/font&gt;&lt;/font&gt;&lt;/font&gt;&lt;/font&gt;&lt;/font&gt;" style="rounded=0;whiteSpace=wrap;html=1;labelBackgroundColor=none;fontSize=14;fillColor=#A8DADC;strokeColor=#457B9D;gradientDirection=east;fontColor=#1D3557;" parent="1" vertex="1">
          <mxGeometry x="339.54999999999995" y="377.5" width="150" height="55" as="geometry" />
        </mxCell>
        <mxCell id="486M2q-yROrSLdvB-Rcd-15" value="&lt;font style=&quot;font-size: 14px;&quot;&gt;&lt;font style=&quot;vertical-align: inherit;&quot;&gt;&lt;font style=&quot;vertical-align: inherit;&quot;&gt;&lt;font style=&quot;vertical-align: inherit;&quot;&gt;&lt;font style=&quot;vertical-align: inherit;&quot;&gt;&lt;font style=&quot;vertical-align: inherit;&quot;&gt;&lt;font style=&quot;vertical-align: inherit;&quot;&gt;&lt;font style=&quot;vertical-align: inherit;&quot;&gt;&lt;font style=&quot;vertical-align: inherit;&quot;&gt;&lt;font style=&quot;vertical-align: inherit;&quot;&gt;&lt;font style=&quot;vertical-align: inherit;&quot;&gt;&lt;font style=&quot;vertical-align: inherit;&quot;&gt;&lt;font style=&quot;vertical-align: inherit;&quot;&gt;&lt;font style=&quot;vertical-align: inherit;&quot;&gt;&lt;font style=&quot;vertical-align: inherit;&quot;&gt;Instituicao&lt;/font&gt;&lt;/font&gt;&lt;/font&gt;&lt;/font&gt;&lt;/font&gt;&lt;/font&gt;&lt;/font&gt;&lt;/font&gt;&lt;/font&gt;&lt;/font&gt;&lt;/font&gt;&lt;/font&gt;&lt;/font&gt;&lt;/font&gt;&lt;/font&gt;" style="rounded=0;whiteSpace=wrap;html=1;labelBackgroundColor=none;fontSize=14;fillColor=#A8DADC;strokeColor=#457B9D;gradientDirection=east;fontColor=#1D3557;" parent="1" vertex="1">
          <mxGeometry x="340" y="750" width="150" height="55" as="geometry" />
        </mxCell>
        <mxCell id="486M2q-yROrSLdvB-Rcd-16" style="edgeStyle=orthogonalEdgeStyle;rounded=0;orthogonalLoop=1;jettySize=auto;html=1;exitX=1;exitY=0.5;exitDx=0;exitDy=0;entryX=0;entryY=0.5;entryDx=0;entryDy=0;endArrow=none;endFill=0;labelBackgroundColor=none;strokeColor=#457B9D;fontColor=default;" parent="1" source="486M2q-yROrSLdvB-Rcd-17" target="486M2q-yROrSLdvB-Rcd-4" edge="1">
          <mxGeometry relative="1" as="geometry" />
        </mxCell>
        <mxCell id="486M2q-yROrSLdvB-Rcd-17" value="Possui" style="rhombus;whiteSpace=wrap;html=1;labelBackgroundColor=none;fillColor=#A8DADC;fontSize=14;strokeColor=#457B9D;fontColor=#1D3557;" parent="1" vertex="1">
          <mxGeometry x="176.90999999999997" y="200" width="109.09" height="60" as="geometry" />
        </mxCell>
        <mxCell id="486M2q-yROrSLdvB-Rcd-18" style="edgeStyle=orthogonalEdgeStyle;rounded=0;orthogonalLoop=1;jettySize=auto;html=1;entryX=0.5;entryY=0;entryDx=0;entryDy=0;endArrow=none;endFill=0;labelBackgroundColor=none;strokeColor=#457B9D;fontColor=default;" parent="1" source="486M2q-yROrSLdvB-Rcd-19" target="486M2q-yROrSLdvB-Rcd-12" edge="1">
          <mxGeometry relative="1" as="geometry" />
        </mxCell>
        <mxCell id="486M2q-yROrSLdvB-Rcd-19" value="Possui" style="rhombus;whiteSpace=wrap;html=1;labelBackgroundColor=none;fillColor=#A8DADC;fontSize=14;strokeColor=#457B9D;fontColor=#1D3557;" parent="1" vertex="1">
          <mxGeometry x="540.47" y="200" width="109.09" height="60" as="geometry" />
        </mxCell>
        <mxCell id="486M2q-yROrSLdvB-Rcd-20" style="edgeStyle=orthogonalEdgeStyle;rounded=0;orthogonalLoop=1;jettySize=auto;html=1;entryX=1;entryY=0.5;entryDx=0;entryDy=0;endArrow=none;endFill=0;labelBackgroundColor=none;strokeColor=#457B9D;fontColor=default;" parent="1" source="486M2q-yROrSLdvB-Rcd-21" target="486M2q-yROrSLdvB-Rcd-9" edge="1">
          <mxGeometry relative="1" as="geometry" />
        </mxCell>
        <mxCell id="486M2q-yROrSLdvB-Rcd-21" value="Possui" style="rhombus;whiteSpace=wrap;html=1;labelBackgroundColor=none;fillColor=#A8DADC;fontSize=14;strokeColor=#457B9D;fontColor=#1D3557;" parent="1" vertex="1">
          <mxGeometry x="540.47" y="547.5" width="109.09" height="60" as="geometry" />
        </mxCell>
        <mxCell id="486M2q-yROrSLdvB-Rcd-22" style="edgeStyle=orthogonalEdgeStyle;rounded=0;orthogonalLoop=1;jettySize=auto;html=1;entryX=1;entryY=0.5;entryDx=0;entryDy=0;endArrow=none;endFill=0;labelBackgroundColor=none;strokeColor=#457B9D;fontColor=default;" parent="1" source="486M2q-yROrSLdvB-Rcd-23" target="486M2q-yROrSLdvB-Rcd-10" edge="1">
          <mxGeometry relative="1" as="geometry" />
        </mxCell>
        <mxCell id="486M2q-yROrSLdvB-Rcd-23" value="Possui" style="rhombus;whiteSpace=wrap;html=1;labelBackgroundColor=none;fillColor=#A8DADC;fontSize=14;strokeColor=#457B9D;fontColor=#1D3557;" parent="1" vertex="1">
          <mxGeometry x="160" y="547.5" width="109.09" height="60" as="geometry" />
        </mxCell>
        <mxCell id="486M2q-yROrSLdvB-Rcd-24" style="edgeStyle=orthogonalEdgeStyle;rounded=0;orthogonalLoop=1;jettySize=auto;html=1;entryX=0.5;entryY=0;entryDx=0;entryDy=0;endArrow=none;endFill=0;labelBackgroundColor=none;strokeColor=#457B9D;fontColor=default;" parent="1" source="486M2q-yROrSLdvB-Rcd-25" target="486M2q-yROrSLdvB-Rcd-14" edge="1">
          <mxGeometry relative="1" as="geometry" />
        </mxCell>
        <mxCell id="486M2q-yROrSLdvB-Rcd-25" value="Possui" style="rhombus;whiteSpace=wrap;html=1;labelBackgroundColor=none;fillColor=#A8DADC;fontSize=14;strokeColor=#457B9D;fontColor=#1D3557;" parent="1" vertex="1">
          <mxGeometry x="360" y="287.5" width="109.09" height="60" as="geometry" />
        </mxCell>
        <mxCell id="486M2q-yROrSLdvB-Rcd-26" style="edgeStyle=orthogonalEdgeStyle;rounded=0;orthogonalLoop=1;jettySize=auto;html=1;entryX=0.5;entryY=0;entryDx=0;entryDy=0;endArrow=none;endFill=0;labelBackgroundColor=none;strokeColor=#457B9D;fontColor=default;" parent="1" source="486M2q-yROrSLdvB-Rcd-27" target="486M2q-yROrSLdvB-Rcd-9" edge="1">
          <mxGeometry relative="1" as="geometry" />
        </mxCell>
        <mxCell id="486M2q-yROrSLdvB-Rcd-27" value="Possui" style="rhombus;whiteSpace=wrap;html=1;labelBackgroundColor=none;fillColor=#A8DADC;fontSize=14;strokeColor=#457B9D;fontColor=#1D3557;" parent="1" vertex="1">
          <mxGeometry x="359.9899999999999" y="457.5" width="109.09" height="60" as="geometry" />
        </mxCell>
        <mxCell id="486M2q-yROrSLdvB-Rcd-28" value="N" style="text;html=1;align=center;verticalAlign=middle;resizable=0;points=[];autosize=1;strokeColor=none;fillColor=none;labelBackgroundColor=none;fontColor=#1D3557;" parent="1" vertex="1">
          <mxGeometry x="333.23" y="202.5" width="30" height="30" as="geometry" />
        </mxCell>
        <mxCell id="486M2q-yROrSLdvB-Rcd-29" value="1" style="text;html=1;align=center;verticalAlign=middle;resizable=0;points=[];autosize=1;strokeColor=none;fillColor=none;labelBackgroundColor=none;fontColor=#1D3557;" parent="1" vertex="1">
          <mxGeometry x="103.52999999999997" y="202.5" width="30" height="30" as="geometry" />
        </mxCell>
        <mxCell id="486M2q-yROrSLdvB-Rcd-30" value="1" style="text;html=1;align=center;verticalAlign=middle;resizable=0;points=[];autosize=1;strokeColor=none;fillColor=none;labelBackgroundColor=none;fontColor=#1D3557;" parent="1" vertex="1">
          <mxGeometry x="466.76" y="202.5" width="30" height="30" as="geometry" />
        </mxCell>
        <mxCell id="486M2q-yROrSLdvB-Rcd-31" value="N" style="text;html=1;align=center;verticalAlign=middle;resizable=0;points=[];autosize=1;strokeColor=none;fillColor=none;labelBackgroundColor=none;fontColor=#1D3557;" parent="1" vertex="1">
          <mxGeometry x="592.01" y="347.5" width="30" height="30" as="geometry" />
        </mxCell>
        <mxCell id="486M2q-yROrSLdvB-Rcd-32" value="1" style="text;html=1;align=center;verticalAlign=middle;resizable=0;points=[];autosize=1;strokeColor=none;fillColor=none;labelBackgroundColor=none;fontColor=#1D3557;" parent="1" vertex="1">
          <mxGeometry x="466.76" y="550" width="30" height="30" as="geometry" />
        </mxCell>
        <mxCell id="486M2q-yROrSLdvB-Rcd-33" value="N" style="text;html=1;align=center;verticalAlign=middle;resizable=0;points=[];autosize=1;strokeColor=none;fillColor=none;labelBackgroundColor=none;fontColor=#1D3557;" parent="1" vertex="1">
          <mxGeometry x="592.01" y="432.5" width="30" height="30" as="geometry" />
        </mxCell>
        <mxCell id="486M2q-yROrSLdvB-Rcd-34" value="1" style="text;html=1;align=center;verticalAlign=middle;resizable=0;points=[];autosize=1;strokeColor=none;fillColor=none;labelBackgroundColor=none;fontColor=#1D3557;" parent="1" vertex="1">
          <mxGeometry x="412.01" y="257.5" width="30" height="30" as="geometry" />
        </mxCell>
        <mxCell id="486M2q-yROrSLdvB-Rcd-35" value="N" style="text;html=1;align=center;verticalAlign=middle;resizable=0;points=[];autosize=1;strokeColor=none;fillColor=none;labelBackgroundColor=none;fontColor=#1D3557;" parent="1" vertex="1">
          <mxGeometry x="412.01" y="347.5" width="30" height="30" as="geometry" />
        </mxCell>
        <mxCell id="486M2q-yROrSLdvB-Rcd-36" value="1" style="text;html=1;align=center;verticalAlign=middle;resizable=0;points=[];autosize=1;strokeColor=none;fillColor=none;labelBackgroundColor=none;fontColor=#1D3557;" parent="1" vertex="1">
          <mxGeometry x="412.01" y="520" width="30" height="30" as="geometry" />
        </mxCell>
        <mxCell id="486M2q-yROrSLdvB-Rcd-37" value="N" style="text;html=1;align=center;verticalAlign=middle;resizable=0;points=[];autosize=1;strokeColor=none;fillColor=none;labelBackgroundColor=none;fontColor=#1D3557;" parent="1" vertex="1">
          <mxGeometry x="412.01" y="432.5" width="30" height="30" as="geometry" />
        </mxCell>
        <mxCell id="486M2q-yROrSLdvB-Rcd-38" value="N" style="text;html=1;align=center;verticalAlign=middle;resizable=0;points=[];autosize=1;strokeColor=none;fillColor=none;labelBackgroundColor=none;fontColor=#1D3557;" parent="1" vertex="1">
          <mxGeometry x="332.77" y="550" width="30" height="30" as="geometry" />
        </mxCell>
        <mxCell id="486M2q-yROrSLdvB-Rcd-39" style="edgeStyle=orthogonalEdgeStyle;rounded=0;orthogonalLoop=1;jettySize=auto;html=1;entryX=0.5;entryY=0;entryDx=0;entryDy=0;endArrow=none;endFill=0;labelBackgroundColor=none;strokeColor=#457B9D;fontColor=default;" parent="1" source="486M2q-yROrSLdvB-Rcd-40" target="486M2q-yROrSLdvB-Rcd-15" edge="1">
          <mxGeometry relative="1" as="geometry" />
        </mxCell>
        <mxCell id="486M2q-yROrSLdvB-Rcd-40" value="Possui" style="rhombus;whiteSpace=wrap;html=1;labelBackgroundColor=none;fillColor=#A8DADC;fontSize=14;strokeColor=#457B9D;fontColor=#1D3557;" parent="1" vertex="1">
          <mxGeometry x="360.44999999999993" y="640" width="109.09" height="60" as="geometry" />
        </mxCell>
        <mxCell id="486M2q-yROrSLdvB-Rcd-41" value="1" style="text;html=1;align=center;verticalAlign=middle;resizable=0;points=[];autosize=1;strokeColor=none;fillColor=none;labelBackgroundColor=none;fontColor=#1D3557;" parent="1" vertex="1">
          <mxGeometry x="103.52999999999997" y="550" width="30" height="30" as="geometry" />
        </mxCell>
        <mxCell id="486M2q-yROrSLdvB-Rcd-42" value="N" style="text;html=1;align=center;verticalAlign=middle;resizable=0;points=[];autosize=1;strokeColor=none;fillColor=none;labelBackgroundColor=none;fontColor=#1D3557;" parent="1" vertex="1">
          <mxGeometry x="412.01" y="605" width="30" height="30" as="geometry" />
        </mxCell>
        <mxCell id="486M2q-yROrSLdvB-Rcd-43" value="1" style="text;html=1;align=center;verticalAlign=middle;resizable=0;points=[];autosize=1;strokeColor=none;fillColor=none;labelBackgroundColor=none;fontColor=#1D3557;" parent="1" vertex="1">
          <mxGeometry x="412.01" y="720" width="30" height="30" as="geometry" />
        </mxCell>
      </root>
    </mxGraphModel>
  </diagram>
  <diagram name="Logico" id="6OD-ARZ-4T20tQ_gQW-L">
    <mxGraphModel dx="1434" dy="750" grid="1" gridSize="10" guides="1" tooltips="1" connect="1" arrows="1" fold="1" page="1" pageScale="1" pageWidth="827" pageHeight="1169" math="0" shadow="0">
      <root>
        <mxCell id="LaQATIM5saHFZHndEdmn-0" />
        <mxCell id="LaQATIM5saHFZHndEdmn-1" parent="LaQATIM5saHFZHndEdmn-0" />
        <mxCell id="LaQATIM5saHFZHndEdmn-2" value="Sistema Web&#xa;Perfis de usuário:&#xa;1. Administrador: Área administrativa da escola;&#xa;2. Comum: Pode ser um espectador ou palestrante.&#xa;Funcionalidades:&#xa;1. O administrador poderá cadastrar qualquer tipo de usuário;&#xa;2. O administrador poderá cadastrar os tipos de eventos;&#xa;3. Qualquer usuário autenticado poderá ver todos os eventos cadastrados;&#xa;4. O usuário comum poderá ver os eventos que participará;&#xa;5. O usuário comum poderá se inscrever para assistir a um evento ou cancelar a sua inscrição" style="text;whiteSpace=wrap;labelBackgroundColor=none;fontColor=#1D3557;" parent="LaQATIM5saHFZHndEdmn-1" vertex="1">
          <mxGeometry width="560" height="170" as="geometry" />
        </mxCell>
        <mxCell id="lqEG2_-hTy4PG73sZYaS-0" value="TiposDeUsuarios" style="shape=table;startSize=30;container=1;collapsible=1;childLayout=tableLayout;fixedRows=1;rowLines=0;fontStyle=1;align=center;resizeLast=1;html=1;labelBackgroundColor=none;fillColor=#A8DADC;strokeColor=#457B9D;fontColor=#1D3557;" parent="LaQATIM5saHFZHndEdmn-1" vertex="1">
          <mxGeometry y="200" width="180" height="90" as="geometry" />
        </mxCell>
        <mxCell id="lqEG2_-hTy4PG73sZYaS-1" value="" style="shape=tableRow;horizontal=0;startSize=0;swimlaneHead=0;swimlaneBody=0;fillColor=none;collapsible=0;dropTarget=0;points=[[0,0.5],[1,0.5]];portConstraint=eastwest;top=0;left=0;right=0;bottom=1;labelBackgroundColor=none;strokeColor=#457B9D;fontColor=#1D3557;" parent="lqEG2_-hTy4PG73sZYaS-0" vertex="1">
          <mxGeometry y="30" width="180" height="30" as="geometry" />
        </mxCell>
        <mxCell id="lqEG2_-hTy4PG73sZYaS-2" value="PK" style="shape=partialRectangle;connectable=0;fillColor=none;top=0;left=0;bottom=0;right=0;fontStyle=1;overflow=hidden;whiteSpace=wrap;html=1;labelBackgroundColor=none;strokeColor=#457B9D;fontColor=#1D3557;" parent="lqEG2_-hTy4PG73sZYaS-1" vertex="1">
          <mxGeometry width="30" height="30" as="geometry">
            <mxRectangle width="30" height="30" as="alternateBounds" />
          </mxGeometry>
        </mxCell>
        <mxCell id="lqEG2_-hTy4PG73sZYaS-3" value="Id_TiposDeUsuario" style="shape=partialRectangle;connectable=0;fillColor=none;top=0;left=0;bottom=0;right=0;align=left;spacingLeft=6;fontStyle=5;overflow=hidden;whiteSpace=wrap;html=1;labelBackgroundColor=none;strokeColor=#457B9D;fontColor=#1D3557;" parent="lqEG2_-hTy4PG73sZYaS-1" vertex="1">
          <mxGeometry x="30" width="150" height="30" as="geometry">
            <mxRectangle width="150" height="30" as="alternateBounds" />
          </mxGeometry>
        </mxCell>
        <mxCell id="lqEG2_-hTy4PG73sZYaS-4" value="" style="shape=tableRow;horizontal=0;startSize=0;swimlaneHead=0;swimlaneBody=0;fillColor=none;collapsible=0;dropTarget=0;points=[[0,0.5],[1,0.5]];portConstraint=eastwest;top=0;left=0;right=0;bottom=0;labelBackgroundColor=none;strokeColor=#457B9D;fontColor=#1D3557;" parent="lqEG2_-hTy4PG73sZYaS-0" vertex="1">
          <mxGeometry y="60" width="180" height="30" as="geometry" />
        </mxCell>
        <mxCell id="lqEG2_-hTy4PG73sZYaS-5" value="" style="shape=partialRectangle;connectable=0;fillColor=none;top=0;left=0;bottom=0;right=0;editable=1;overflow=hidden;whiteSpace=wrap;html=1;labelBackgroundColor=none;strokeColor=#457B9D;fontColor=#1D3557;" parent="lqEG2_-hTy4PG73sZYaS-4" vertex="1">
          <mxGeometry width="30" height="30" as="geometry">
            <mxRectangle width="30" height="30" as="alternateBounds" />
          </mxGeometry>
        </mxCell>
        <mxCell id="lqEG2_-hTy4PG73sZYaS-6" value="Nome_TipoUsuario" style="shape=partialRectangle;connectable=0;fillColor=none;top=0;left=0;bottom=0;right=0;align=left;spacingLeft=6;overflow=hidden;whiteSpace=wrap;html=1;labelBackgroundColor=none;strokeColor=#457B9D;fontColor=#1D3557;" parent="lqEG2_-hTy4PG73sZYaS-4" vertex="1">
          <mxGeometry x="30" width="150" height="30" as="geometry">
            <mxRectangle width="150" height="30" as="alternateBounds" />
          </mxGeometry>
        </mxCell>
        <mxCell id="lqEG2_-hTy4PG73sZYaS-13" value="TiposDeEventos" style="shape=table;startSize=30;container=1;collapsible=1;childLayout=tableLayout;fixedRows=1;rowLines=0;fontStyle=1;align=center;resizeLast=1;html=1;labelBackgroundColor=none;fillColor=#A8DADC;strokeColor=#457B9D;fontColor=#1D3557;" parent="LaQATIM5saHFZHndEdmn-1" vertex="1">
          <mxGeometry y="760" width="180" height="90" as="geometry" />
        </mxCell>
        <mxCell id="lqEG2_-hTy4PG73sZYaS-14" value="" style="shape=tableRow;horizontal=0;startSize=0;swimlaneHead=0;swimlaneBody=0;fillColor=none;collapsible=0;dropTarget=0;points=[[0,0.5],[1,0.5]];portConstraint=eastwest;top=0;left=0;right=0;bottom=1;labelBackgroundColor=none;strokeColor=#457B9D;fontColor=#1D3557;" parent="lqEG2_-hTy4PG73sZYaS-13" vertex="1">
          <mxGeometry y="30" width="180" height="30" as="geometry" />
        </mxCell>
        <mxCell id="lqEG2_-hTy4PG73sZYaS-15" value="PK" style="shape=partialRectangle;connectable=0;fillColor=none;top=0;left=0;bottom=0;right=0;fontStyle=1;overflow=hidden;whiteSpace=wrap;html=1;labelBackgroundColor=none;strokeColor=#457B9D;fontColor=#1D3557;" parent="lqEG2_-hTy4PG73sZYaS-14" vertex="1">
          <mxGeometry width="30" height="30" as="geometry">
            <mxRectangle width="30" height="30" as="alternateBounds" />
          </mxGeometry>
        </mxCell>
        <mxCell id="lqEG2_-hTy4PG73sZYaS-16" value="Id_TiposDeEvento" style="shape=partialRectangle;connectable=0;fillColor=none;top=0;left=0;bottom=0;right=0;align=left;spacingLeft=6;fontStyle=5;overflow=hidden;whiteSpace=wrap;html=1;labelBackgroundColor=none;strokeColor=#457B9D;fontColor=#1D3557;" parent="lqEG2_-hTy4PG73sZYaS-14" vertex="1">
          <mxGeometry x="30" width="150" height="30" as="geometry">
            <mxRectangle width="150" height="30" as="alternateBounds" />
          </mxGeometry>
        </mxCell>
        <mxCell id="lqEG2_-hTy4PG73sZYaS-17" value="" style="shape=tableRow;horizontal=0;startSize=0;swimlaneHead=0;swimlaneBody=0;fillColor=none;collapsible=0;dropTarget=0;points=[[0,0.5],[1,0.5]];portConstraint=eastwest;top=0;left=0;right=0;bottom=0;labelBackgroundColor=none;strokeColor=#457B9D;fontColor=#1D3557;" parent="lqEG2_-hTy4PG73sZYaS-13" vertex="1">
          <mxGeometry y="60" width="180" height="30" as="geometry" />
        </mxCell>
        <mxCell id="lqEG2_-hTy4PG73sZYaS-18" value="" style="shape=partialRectangle;connectable=0;fillColor=none;top=0;left=0;bottom=0;right=0;editable=1;overflow=hidden;whiteSpace=wrap;html=1;labelBackgroundColor=none;strokeColor=#457B9D;fontColor=#1D3557;" parent="lqEG2_-hTy4PG73sZYaS-17" vertex="1">
          <mxGeometry width="30" height="30" as="geometry">
            <mxRectangle width="30" height="30" as="alternateBounds" />
          </mxGeometry>
        </mxCell>
        <mxCell id="lqEG2_-hTy4PG73sZYaS-19" value="Nome_TipoEvento" style="shape=partialRectangle;connectable=0;fillColor=none;top=0;left=0;bottom=0;right=0;align=left;spacingLeft=6;overflow=hidden;whiteSpace=wrap;html=1;labelBackgroundColor=none;strokeColor=#457B9D;fontColor=#1D3557;" parent="lqEG2_-hTy4PG73sZYaS-17" vertex="1">
          <mxGeometry x="30" width="150" height="30" as="geometry">
            <mxRectangle width="150" height="30" as="alternateBounds" />
          </mxGeometry>
        </mxCell>
        <mxCell id="lqEG2_-hTy4PG73sZYaS-29" value="Instituicao" style="shape=table;startSize=30;container=1;collapsible=1;childLayout=tableLayout;fixedRows=1;rowLines=0;fontStyle=1;align=center;resizeLast=1;html=1;labelBackgroundColor=none;fillColor=#A8DADC;strokeColor=#457B9D;fontColor=#1D3557;" parent="LaQATIM5saHFZHndEdmn-1" vertex="1">
          <mxGeometry x="520" y="640" width="180" height="150" as="geometry" />
        </mxCell>
        <mxCell id="lqEG2_-hTy4PG73sZYaS-30" value="" style="shape=tableRow;horizontal=0;startSize=0;swimlaneHead=0;swimlaneBody=0;fillColor=none;collapsible=0;dropTarget=0;points=[[0,0.5],[1,0.5]];portConstraint=eastwest;top=0;left=0;right=0;bottom=1;labelBackgroundColor=none;strokeColor=#457B9D;fontColor=#1D3557;" parent="lqEG2_-hTy4PG73sZYaS-29" vertex="1">
          <mxGeometry y="30" width="180" height="30" as="geometry" />
        </mxCell>
        <mxCell id="lqEG2_-hTy4PG73sZYaS-31" value="PK" style="shape=partialRectangle;connectable=0;fillColor=none;top=0;left=0;bottom=0;right=0;fontStyle=1;overflow=hidden;whiteSpace=wrap;html=1;labelBackgroundColor=none;strokeColor=#457B9D;fontColor=#1D3557;" parent="lqEG2_-hTy4PG73sZYaS-30" vertex="1">
          <mxGeometry width="30" height="30" as="geometry">
            <mxRectangle width="30" height="30" as="alternateBounds" />
          </mxGeometry>
        </mxCell>
        <mxCell id="lqEG2_-hTy4PG73sZYaS-32" value="Id_Instituicao" style="shape=partialRectangle;connectable=0;fillColor=none;top=0;left=0;bottom=0;right=0;align=left;spacingLeft=6;fontStyle=5;overflow=hidden;whiteSpace=wrap;html=1;labelBackgroundColor=none;strokeColor=#457B9D;fontColor=#1D3557;" parent="lqEG2_-hTy4PG73sZYaS-30" vertex="1">
          <mxGeometry x="30" width="150" height="30" as="geometry">
            <mxRectangle width="150" height="30" as="alternateBounds" />
          </mxGeometry>
        </mxCell>
        <mxCell id="lqEG2_-hTy4PG73sZYaS-33" value="" style="shape=tableRow;horizontal=0;startSize=0;swimlaneHead=0;swimlaneBody=0;fillColor=none;collapsible=0;dropTarget=0;points=[[0,0.5],[1,0.5]];portConstraint=eastwest;top=0;left=0;right=0;bottom=0;labelBackgroundColor=none;strokeColor=#457B9D;fontColor=#1D3557;" parent="lqEG2_-hTy4PG73sZYaS-29" vertex="1">
          <mxGeometry y="60" width="180" height="30" as="geometry" />
        </mxCell>
        <mxCell id="lqEG2_-hTy4PG73sZYaS-34" value="" style="shape=partialRectangle;connectable=0;fillColor=none;top=0;left=0;bottom=0;right=0;editable=1;overflow=hidden;whiteSpace=wrap;html=1;labelBackgroundColor=none;strokeColor=#457B9D;fontColor=#1D3557;" parent="lqEG2_-hTy4PG73sZYaS-33" vertex="1">
          <mxGeometry width="30" height="30" as="geometry">
            <mxRectangle width="30" height="30" as="alternateBounds" />
          </mxGeometry>
        </mxCell>
        <mxCell id="lqEG2_-hTy4PG73sZYaS-35" value="CNPJ" style="shape=partialRectangle;connectable=0;fillColor=none;top=0;left=0;bottom=0;right=0;align=left;spacingLeft=6;overflow=hidden;whiteSpace=wrap;html=1;labelBackgroundColor=none;strokeColor=#457B9D;fontColor=#1D3557;" parent="lqEG2_-hTy4PG73sZYaS-33" vertex="1">
          <mxGeometry x="30" width="150" height="30" as="geometry">
            <mxRectangle width="150" height="30" as="alternateBounds" />
          </mxGeometry>
        </mxCell>
        <mxCell id="lqEG2_-hTy4PG73sZYaS-36" value="" style="shape=tableRow;horizontal=0;startSize=0;swimlaneHead=0;swimlaneBody=0;fillColor=none;collapsible=0;dropTarget=0;points=[[0,0.5],[1,0.5]];portConstraint=eastwest;top=0;left=0;right=0;bottom=0;labelBackgroundColor=none;strokeColor=#457B9D;fontColor=#1D3557;" parent="lqEG2_-hTy4PG73sZYaS-29" vertex="1">
          <mxGeometry y="90" width="180" height="30" as="geometry" />
        </mxCell>
        <mxCell id="lqEG2_-hTy4PG73sZYaS-37" value="" style="shape=partialRectangle;connectable=0;fillColor=none;top=0;left=0;bottom=0;right=0;editable=1;overflow=hidden;whiteSpace=wrap;html=1;labelBackgroundColor=none;strokeColor=#457B9D;fontColor=#1D3557;" parent="lqEG2_-hTy4PG73sZYaS-36" vertex="1">
          <mxGeometry width="30" height="30" as="geometry">
            <mxRectangle width="30" height="30" as="alternateBounds" />
          </mxGeometry>
        </mxCell>
        <mxCell id="lqEG2_-hTy4PG73sZYaS-38" value="Nome_Fantasia" style="shape=partialRectangle;connectable=0;fillColor=none;top=0;left=0;bottom=0;right=0;align=left;spacingLeft=6;overflow=hidden;whiteSpace=wrap;html=1;labelBackgroundColor=none;strokeColor=#457B9D;fontColor=#1D3557;" parent="lqEG2_-hTy4PG73sZYaS-36" vertex="1">
          <mxGeometry x="30" width="150" height="30" as="geometry">
            <mxRectangle width="150" height="30" as="alternateBounds" />
          </mxGeometry>
        </mxCell>
        <mxCell id="lqEG2_-hTy4PG73sZYaS-39" value="" style="shape=tableRow;horizontal=0;startSize=0;swimlaneHead=0;swimlaneBody=0;fillColor=none;collapsible=0;dropTarget=0;points=[[0,0.5],[1,0.5]];portConstraint=eastwest;top=0;left=0;right=0;bottom=0;labelBackgroundColor=none;strokeColor=#457B9D;fontColor=#1D3557;" parent="lqEG2_-hTy4PG73sZYaS-29" vertex="1">
          <mxGeometry y="120" width="180" height="30" as="geometry" />
        </mxCell>
        <mxCell id="lqEG2_-hTy4PG73sZYaS-40" value="" style="shape=partialRectangle;connectable=0;fillColor=none;top=0;left=0;bottom=0;right=0;editable=1;overflow=hidden;whiteSpace=wrap;html=1;labelBackgroundColor=none;strokeColor=#457B9D;fontColor=#1D3557;" parent="lqEG2_-hTy4PG73sZYaS-39" vertex="1">
          <mxGeometry width="30" height="30" as="geometry">
            <mxRectangle width="30" height="30" as="alternateBounds" />
          </mxGeometry>
        </mxCell>
        <mxCell id="lqEG2_-hTy4PG73sZYaS-41" value="Endereço" style="shape=partialRectangle;connectable=0;fillColor=none;top=0;left=0;bottom=0;right=0;align=left;spacingLeft=6;overflow=hidden;whiteSpace=wrap;html=1;labelBackgroundColor=none;strokeColor=#457B9D;fontColor=#1D3557;" parent="lqEG2_-hTy4PG73sZYaS-39" vertex="1">
          <mxGeometry x="30" width="150" height="30" as="geometry">
            <mxRectangle width="150" height="30" as="alternateBounds" />
          </mxGeometry>
        </mxCell>
        <mxCell id="lqEG2_-hTy4PG73sZYaS-42" value="Usuario" style="shape=table;startSize=30;container=1;collapsible=1;childLayout=tableLayout;fixedRows=1;rowLines=0;fontStyle=1;align=center;resizeLast=1;html=1;whiteSpace=wrap;labelBackgroundColor=none;fillColor=#A8DADC;strokeColor=#457B9D;fontColor=#1D3557;" parent="LaQATIM5saHFZHndEdmn-1" vertex="1">
          <mxGeometry x="270" y="200" width="180" height="180" as="geometry" />
        </mxCell>
        <mxCell id="lqEG2_-hTy4PG73sZYaS-43" value="" style="shape=tableRow;horizontal=0;startSize=0;swimlaneHead=0;swimlaneBody=0;fillColor=none;collapsible=0;dropTarget=0;points=[[0,0.5],[1,0.5]];portConstraint=eastwest;top=0;left=0;right=0;bottom=0;html=1;labelBackgroundColor=none;strokeColor=#457B9D;fontColor=#1D3557;" parent="lqEG2_-hTy4PG73sZYaS-42" vertex="1">
          <mxGeometry y="30" width="180" height="30" as="geometry" />
        </mxCell>
        <mxCell id="lqEG2_-hTy4PG73sZYaS-44" value="PK" style="shape=partialRectangle;connectable=0;fillColor=none;top=0;left=0;bottom=0;right=0;fontStyle=1;overflow=hidden;html=1;whiteSpace=wrap;labelBackgroundColor=none;strokeColor=#457B9D;fontColor=#1D3557;" parent="lqEG2_-hTy4PG73sZYaS-43" vertex="1">
          <mxGeometry width="60" height="30" as="geometry">
            <mxRectangle width="60" height="30" as="alternateBounds" />
          </mxGeometry>
        </mxCell>
        <mxCell id="lqEG2_-hTy4PG73sZYaS-45" value="Id_Usuario" style="shape=partialRectangle;connectable=0;fillColor=none;top=0;left=0;bottom=0;right=0;align=left;spacingLeft=6;fontStyle=5;overflow=hidden;html=1;whiteSpace=wrap;labelBackgroundColor=none;strokeColor=#457B9D;fontColor=#1D3557;" parent="lqEG2_-hTy4PG73sZYaS-43" vertex="1">
          <mxGeometry x="60" width="120" height="30" as="geometry">
            <mxRectangle width="120" height="30" as="alternateBounds" />
          </mxGeometry>
        </mxCell>
        <mxCell id="lqEG2_-hTy4PG73sZYaS-46" value="" style="shape=tableRow;horizontal=0;startSize=0;swimlaneHead=0;swimlaneBody=0;fillColor=none;collapsible=0;dropTarget=0;points=[[0,0.5],[1,0.5]];portConstraint=eastwest;top=0;left=0;right=0;bottom=1;html=1;labelBackgroundColor=none;strokeColor=#457B9D;fontColor=#1D3557;" parent="lqEG2_-hTy4PG73sZYaS-42" vertex="1">
          <mxGeometry y="60" width="180" height="30" as="geometry" />
        </mxCell>
        <mxCell id="lqEG2_-hTy4PG73sZYaS-47" value="FK" style="shape=partialRectangle;connectable=0;fillColor=none;top=0;left=0;bottom=0;right=0;fontStyle=1;overflow=hidden;html=1;whiteSpace=wrap;labelBackgroundColor=none;strokeColor=#457B9D;fontColor=#1D3557;" parent="lqEG2_-hTy4PG73sZYaS-46" vertex="1">
          <mxGeometry width="60" height="30" as="geometry">
            <mxRectangle width="60" height="30" as="alternateBounds" />
          </mxGeometry>
        </mxCell>
        <mxCell id="lqEG2_-hTy4PG73sZYaS-48" value="Id_TiposDeUsuario" style="shape=partialRectangle;connectable=0;fillColor=none;top=0;left=0;bottom=0;right=0;align=left;spacingLeft=6;fontStyle=5;overflow=hidden;html=1;whiteSpace=wrap;labelBackgroundColor=none;strokeColor=#457B9D;fontColor=#1D3557;" parent="lqEG2_-hTy4PG73sZYaS-46" vertex="1">
          <mxGeometry x="60" width="120" height="30" as="geometry">
            <mxRectangle width="120" height="30" as="alternateBounds" />
          </mxGeometry>
        </mxCell>
        <mxCell id="lqEG2_-hTy4PG73sZYaS-49" value="" style="shape=tableRow;horizontal=0;startSize=0;swimlaneHead=0;swimlaneBody=0;fillColor=none;collapsible=0;dropTarget=0;points=[[0,0.5],[1,0.5]];portConstraint=eastwest;top=0;left=0;right=0;bottom=0;html=1;labelBackgroundColor=none;strokeColor=#457B9D;fontColor=#1D3557;" parent="lqEG2_-hTy4PG73sZYaS-42" vertex="1">
          <mxGeometry y="90" width="180" height="30" as="geometry" />
        </mxCell>
        <mxCell id="lqEG2_-hTy4PG73sZYaS-50" value="" style="shape=partialRectangle;connectable=0;fillColor=none;top=0;left=0;bottom=0;right=0;editable=1;overflow=hidden;html=1;whiteSpace=wrap;labelBackgroundColor=none;strokeColor=#457B9D;fontColor=#1D3557;" parent="lqEG2_-hTy4PG73sZYaS-49" vertex="1">
          <mxGeometry width="60" height="30" as="geometry">
            <mxRectangle width="60" height="30" as="alternateBounds" />
          </mxGeometry>
        </mxCell>
        <mxCell id="lqEG2_-hTy4PG73sZYaS-51" value="Nome_Usuario" style="shape=partialRectangle;connectable=0;fillColor=none;top=0;left=0;bottom=0;right=0;align=left;spacingLeft=6;overflow=hidden;html=1;whiteSpace=wrap;labelBackgroundColor=none;strokeColor=#457B9D;fontColor=#1D3557;" parent="lqEG2_-hTy4PG73sZYaS-49" vertex="1">
          <mxGeometry x="60" width="120" height="30" as="geometry">
            <mxRectangle width="120" height="30" as="alternateBounds" />
          </mxGeometry>
        </mxCell>
        <mxCell id="lqEG2_-hTy4PG73sZYaS-52" value="" style="shape=tableRow;horizontal=0;startSize=0;swimlaneHead=0;swimlaneBody=0;fillColor=none;collapsible=0;dropTarget=0;points=[[0,0.5],[1,0.5]];portConstraint=eastwest;top=0;left=0;right=0;bottom=0;html=1;labelBackgroundColor=none;strokeColor=#457B9D;fontColor=#1D3557;" parent="lqEG2_-hTy4PG73sZYaS-42" vertex="1">
          <mxGeometry y="120" width="180" height="30" as="geometry" />
        </mxCell>
        <mxCell id="lqEG2_-hTy4PG73sZYaS-53" value="" style="shape=partialRectangle;connectable=0;fillColor=none;top=0;left=0;bottom=0;right=0;editable=1;overflow=hidden;html=1;whiteSpace=wrap;labelBackgroundColor=none;strokeColor=#457B9D;fontColor=#1D3557;" parent="lqEG2_-hTy4PG73sZYaS-52" vertex="1">
          <mxGeometry width="60" height="30" as="geometry">
            <mxRectangle width="60" height="30" as="alternateBounds" />
          </mxGeometry>
        </mxCell>
        <mxCell id="lqEG2_-hTy4PG73sZYaS-54" value="Email_Usuario" style="shape=partialRectangle;connectable=0;fillColor=none;top=0;left=0;bottom=0;right=0;align=left;spacingLeft=6;overflow=hidden;html=1;whiteSpace=wrap;labelBackgroundColor=none;strokeColor=#457B9D;fontColor=#1D3557;" parent="lqEG2_-hTy4PG73sZYaS-52" vertex="1">
          <mxGeometry x="60" width="120" height="30" as="geometry">
            <mxRectangle width="120" height="30" as="alternateBounds" />
          </mxGeometry>
        </mxCell>
        <mxCell id="lqEG2_-hTy4PG73sZYaS-55" value="" style="shape=tableRow;horizontal=0;startSize=0;swimlaneHead=0;swimlaneBody=0;fillColor=none;collapsible=0;dropTarget=0;points=[[0,0.5],[1,0.5]];portConstraint=eastwest;top=0;left=0;right=0;bottom=0;html=1;labelBackgroundColor=none;strokeColor=#457B9D;fontColor=#1D3557;" parent="lqEG2_-hTy4PG73sZYaS-42" vertex="1">
          <mxGeometry y="150" width="180" height="30" as="geometry" />
        </mxCell>
        <mxCell id="lqEG2_-hTy4PG73sZYaS-56" value="" style="shape=partialRectangle;connectable=0;fillColor=none;top=0;left=0;bottom=0;right=0;editable=1;overflow=hidden;html=1;whiteSpace=wrap;labelBackgroundColor=none;strokeColor=#457B9D;fontColor=#1D3557;" parent="lqEG2_-hTy4PG73sZYaS-55" vertex="1">
          <mxGeometry width="60" height="30" as="geometry">
            <mxRectangle width="60" height="30" as="alternateBounds" />
          </mxGeometry>
        </mxCell>
        <mxCell id="lqEG2_-hTy4PG73sZYaS-57" value="Senha_Usuario" style="shape=partialRectangle;connectable=0;fillColor=none;top=0;left=0;bottom=0;right=0;align=left;spacingLeft=6;overflow=hidden;html=1;whiteSpace=wrap;labelBackgroundColor=none;strokeColor=#457B9D;fontColor=#1D3557;" parent="lqEG2_-hTy4PG73sZYaS-55" vertex="1">
          <mxGeometry x="60" width="120" height="30" as="geometry">
            <mxRectangle width="120" height="30" as="alternateBounds" />
          </mxGeometry>
        </mxCell>
        <mxCell id="lqEG2_-hTy4PG73sZYaS-59" value="" style="edgeStyle=entityRelationEdgeStyle;fontSize=12;html=1;endArrow=ERoneToMany;rounded=0;exitX=1;exitY=0.5;exitDx=0;exitDy=0;entryX=0;entryY=0.5;entryDx=0;entryDy=0;labelBackgroundColor=none;strokeColor=#457B9D;fontColor=default;" parent="LaQATIM5saHFZHndEdmn-1" source="lqEG2_-hTy4PG73sZYaS-1" target="lqEG2_-hTy4PG73sZYaS-46" edge="1">
          <mxGeometry width="100" height="100" relative="1" as="geometry">
            <mxPoint x="370" y="400" as="sourcePoint" />
            <mxPoint x="470" y="300" as="targetPoint" />
          </mxGeometry>
        </mxCell>
        <mxCell id="lqEG2_-hTy4PG73sZYaS-60" value="Inscricao" style="shape=table;startSize=30;container=1;collapsible=1;childLayout=tableLayout;fixedRows=1;rowLines=0;fontStyle=1;align=center;resizeLast=1;html=1;whiteSpace=wrap;labelBackgroundColor=none;fillColor=#A8DADC;strokeColor=#457B9D;fontColor=#1D3557;" parent="LaQATIM5saHFZHndEdmn-1" vertex="1">
          <mxGeometry x="560" y="270" width="180" height="150" as="geometry" />
        </mxCell>
        <mxCell id="lqEG2_-hTy4PG73sZYaS-61" value="" style="shape=tableRow;horizontal=0;startSize=0;swimlaneHead=0;swimlaneBody=0;fillColor=none;collapsible=0;dropTarget=0;points=[[0,0.5],[1,0.5]];portConstraint=eastwest;top=0;left=0;right=0;bottom=0;html=1;labelBackgroundColor=none;strokeColor=#457B9D;fontColor=#1D3557;" parent="lqEG2_-hTy4PG73sZYaS-60" vertex="1">
          <mxGeometry y="30" width="180" height="30" as="geometry" />
        </mxCell>
        <mxCell id="lqEG2_-hTy4PG73sZYaS-62" value="PK" style="shape=partialRectangle;connectable=0;fillColor=none;top=0;left=0;bottom=0;right=0;fontStyle=1;overflow=hidden;html=1;whiteSpace=wrap;labelBackgroundColor=none;strokeColor=#457B9D;fontColor=#1D3557;" parent="lqEG2_-hTy4PG73sZYaS-61" vertex="1">
          <mxGeometry width="60" height="30" as="geometry">
            <mxRectangle width="60" height="30" as="alternateBounds" />
          </mxGeometry>
        </mxCell>
        <mxCell id="lqEG2_-hTy4PG73sZYaS-63" value="Id_Inscricao" style="shape=partialRectangle;connectable=0;fillColor=none;top=0;left=0;bottom=0;right=0;align=left;spacingLeft=6;fontStyle=5;overflow=hidden;html=1;whiteSpace=wrap;labelBackgroundColor=none;strokeColor=#457B9D;fontColor=#1D3557;" parent="lqEG2_-hTy4PG73sZYaS-61" vertex="1">
          <mxGeometry x="60" width="120" height="30" as="geometry">
            <mxRectangle width="120" height="30" as="alternateBounds" />
          </mxGeometry>
        </mxCell>
        <mxCell id="lqEG2_-hTy4PG73sZYaS-82" value="" style="shape=tableRow;horizontal=0;startSize=0;swimlaneHead=0;swimlaneBody=0;fillColor=none;collapsible=0;dropTarget=0;points=[[0,0.5],[1,0.5]];portConstraint=eastwest;top=0;left=0;right=0;bottom=0;html=1;labelBackgroundColor=none;strokeColor=#457B9D;fontColor=#1D3557;" parent="lqEG2_-hTy4PG73sZYaS-60" vertex="1">
          <mxGeometry y="60" width="180" height="30" as="geometry" />
        </mxCell>
        <mxCell id="lqEG2_-hTy4PG73sZYaS-83" value="FK1" style="shape=partialRectangle;connectable=0;fillColor=none;top=0;left=0;bottom=0;right=0;fontStyle=1;overflow=hidden;html=1;whiteSpace=wrap;labelBackgroundColor=none;strokeColor=#457B9D;fontColor=#1D3557;" parent="lqEG2_-hTy4PG73sZYaS-82" vertex="1">
          <mxGeometry width="60" height="30" as="geometry">
            <mxRectangle width="60" height="30" as="alternateBounds" />
          </mxGeometry>
        </mxCell>
        <mxCell id="lqEG2_-hTy4PG73sZYaS-84" value="Id_Usuario" style="shape=partialRectangle;connectable=0;fillColor=none;top=0;left=0;bottom=0;right=0;align=left;spacingLeft=6;fontStyle=5;overflow=hidden;html=1;whiteSpace=wrap;labelBackgroundColor=none;strokeColor=#457B9D;fontColor=#1D3557;" parent="lqEG2_-hTy4PG73sZYaS-82" vertex="1">
          <mxGeometry x="60" width="120" height="30" as="geometry">
            <mxRectangle width="120" height="30" as="alternateBounds" />
          </mxGeometry>
        </mxCell>
        <mxCell id="lqEG2_-hTy4PG73sZYaS-64" value="" style="shape=tableRow;horizontal=0;startSize=0;swimlaneHead=0;swimlaneBody=0;fillColor=none;collapsible=0;dropTarget=0;points=[[0,0.5],[1,0.5]];portConstraint=eastwest;top=0;left=0;right=0;bottom=1;html=1;labelBackgroundColor=none;strokeColor=#457B9D;fontColor=#1D3557;" parent="lqEG2_-hTy4PG73sZYaS-60" vertex="1">
          <mxGeometry y="90" width="180" height="30" as="geometry" />
        </mxCell>
        <mxCell id="lqEG2_-hTy4PG73sZYaS-65" value="FK2" style="shape=partialRectangle;connectable=0;fillColor=none;top=0;left=0;bottom=0;right=0;fontStyle=1;overflow=hidden;html=1;whiteSpace=wrap;labelBackgroundColor=none;strokeColor=#457B9D;fontColor=#1D3557;" parent="lqEG2_-hTy4PG73sZYaS-64" vertex="1">
          <mxGeometry width="60" height="30" as="geometry">
            <mxRectangle width="60" height="30" as="alternateBounds" />
          </mxGeometry>
        </mxCell>
        <mxCell id="lqEG2_-hTy4PG73sZYaS-66" value="Id_Evento" style="shape=partialRectangle;connectable=0;fillColor=none;top=0;left=0;bottom=0;right=0;align=left;spacingLeft=6;fontStyle=5;overflow=hidden;html=1;whiteSpace=wrap;labelBackgroundColor=none;strokeColor=#457B9D;fontColor=#1D3557;" parent="lqEG2_-hTy4PG73sZYaS-64" vertex="1">
          <mxGeometry x="60" width="120" height="30" as="geometry">
            <mxRectangle width="120" height="30" as="alternateBounds" />
          </mxGeometry>
        </mxCell>
        <mxCell id="lqEG2_-hTy4PG73sZYaS-67" value="" style="shape=tableRow;horizontal=0;startSize=0;swimlaneHead=0;swimlaneBody=0;fillColor=none;collapsible=0;dropTarget=0;points=[[0,0.5],[1,0.5]];portConstraint=eastwest;top=0;left=0;right=0;bottom=0;html=1;labelBackgroundColor=none;strokeColor=#457B9D;fontColor=#1D3557;" parent="lqEG2_-hTy4PG73sZYaS-60" vertex="1">
          <mxGeometry y="120" width="180" height="30" as="geometry" />
        </mxCell>
        <mxCell id="lqEG2_-hTy4PG73sZYaS-68" value="" style="shape=partialRectangle;connectable=0;fillColor=none;top=0;left=0;bottom=0;right=0;editable=1;overflow=hidden;html=1;whiteSpace=wrap;labelBackgroundColor=none;strokeColor=#457B9D;fontColor=#1D3557;" parent="lqEG2_-hTy4PG73sZYaS-67" vertex="1">
          <mxGeometry width="60" height="30" as="geometry">
            <mxRectangle width="60" height="30" as="alternateBounds" />
          </mxGeometry>
        </mxCell>
        <mxCell id="lqEG2_-hTy4PG73sZYaS-69" value="Situacao_Inscricao" style="shape=partialRectangle;connectable=0;fillColor=none;top=0;left=0;bottom=0;right=0;align=left;spacingLeft=6;overflow=hidden;html=1;whiteSpace=wrap;labelBackgroundColor=none;strokeColor=#457B9D;fontColor=#1D3557;" parent="lqEG2_-hTy4PG73sZYaS-67" vertex="1">
          <mxGeometry x="60" width="120" height="30" as="geometry">
            <mxRectangle width="120" height="30" as="alternateBounds" />
          </mxGeometry>
        </mxCell>
        <mxCell id="lqEG2_-hTy4PG73sZYaS-85" value="" style="edgeStyle=entityRelationEdgeStyle;fontSize=12;html=1;endArrow=ERoneToMany;rounded=0;exitX=1;exitY=0.5;exitDx=0;exitDy=0;entryX=0;entryY=0.5;entryDx=0;entryDy=0;labelBackgroundColor=none;strokeColor=#457B9D;fontColor=default;" parent="LaQATIM5saHFZHndEdmn-1" source="lqEG2_-hTy4PG73sZYaS-43" target="lqEG2_-hTy4PG73sZYaS-82" edge="1">
          <mxGeometry width="100" height="100" relative="1" as="geometry">
            <mxPoint x="440" y="360" as="sourcePoint" />
            <mxPoint x="540" y="260" as="targetPoint" />
          </mxGeometry>
        </mxCell>
        <mxCell id="lqEG2_-hTy4PG73sZYaS-102" value="Evento" style="shape=table;startSize=30;container=1;collapsible=1;childLayout=tableLayout;fixedRows=1;rowLines=0;fontStyle=1;align=center;resizeLast=1;html=1;whiteSpace=wrap;labelBackgroundColor=none;fillColor=#A8DADC;strokeColor=#457B9D;fontColor=#1D3557;" parent="LaQATIM5saHFZHndEdmn-1" vertex="1">
          <mxGeometry x="270" y="540" width="180" height="210" as="geometry" />
        </mxCell>
        <mxCell id="lqEG2_-hTy4PG73sZYaS-103" value="" style="shape=tableRow;horizontal=0;startSize=0;swimlaneHead=0;swimlaneBody=0;fillColor=none;collapsible=0;dropTarget=0;points=[[0,0.5],[1,0.5]];portConstraint=eastwest;top=0;left=0;right=0;bottom=0;html=1;labelBackgroundColor=none;strokeColor=#457B9D;fontColor=#1D3557;" parent="lqEG2_-hTy4PG73sZYaS-102" vertex="1">
          <mxGeometry y="30" width="180" height="30" as="geometry" />
        </mxCell>
        <mxCell id="lqEG2_-hTy4PG73sZYaS-104" value="PK" style="shape=partialRectangle;connectable=0;fillColor=none;top=0;left=0;bottom=0;right=0;fontStyle=1;overflow=hidden;html=1;whiteSpace=wrap;labelBackgroundColor=none;strokeColor=#457B9D;fontColor=#1D3557;" parent="lqEG2_-hTy4PG73sZYaS-103" vertex="1">
          <mxGeometry width="60" height="30" as="geometry">
            <mxRectangle width="60" height="30" as="alternateBounds" />
          </mxGeometry>
        </mxCell>
        <mxCell id="lqEG2_-hTy4PG73sZYaS-105" value="Id_Evento" style="shape=partialRectangle;connectable=0;fillColor=none;top=0;left=0;bottom=0;right=0;align=left;spacingLeft=6;fontStyle=5;overflow=hidden;html=1;whiteSpace=wrap;labelBackgroundColor=none;strokeColor=#457B9D;fontColor=#1D3557;" parent="lqEG2_-hTy4PG73sZYaS-103" vertex="1">
          <mxGeometry x="60" width="120" height="30" as="geometry">
            <mxRectangle width="120" height="30" as="alternateBounds" />
          </mxGeometry>
        </mxCell>
        <mxCell id="lqEG2_-hTy4PG73sZYaS-106" value="" style="shape=tableRow;horizontal=0;startSize=0;swimlaneHead=0;swimlaneBody=0;fillColor=none;collapsible=0;dropTarget=0;points=[[0,0.5],[1,0.5]];portConstraint=eastwest;top=0;left=0;right=0;bottom=0;html=1;labelBackgroundColor=none;strokeColor=#457B9D;fontColor=#1D3557;" parent="lqEG2_-hTy4PG73sZYaS-102" vertex="1">
          <mxGeometry y="60" width="180" height="30" as="geometry" />
        </mxCell>
        <mxCell id="lqEG2_-hTy4PG73sZYaS-107" value="FK1" style="shape=partialRectangle;connectable=0;fillColor=none;top=0;left=0;bottom=0;right=0;fontStyle=1;overflow=hidden;html=1;whiteSpace=wrap;labelBackgroundColor=none;strokeColor=#457B9D;fontColor=#1D3557;" parent="lqEG2_-hTy4PG73sZYaS-106" vertex="1">
          <mxGeometry width="60" height="30" as="geometry">
            <mxRectangle width="60" height="30" as="alternateBounds" />
          </mxGeometry>
        </mxCell>
        <mxCell id="lqEG2_-hTy4PG73sZYaS-108" value="Id_Instituicao" style="shape=partialRectangle;connectable=0;fillColor=none;top=0;left=0;bottom=0;right=0;align=left;spacingLeft=6;fontStyle=5;overflow=hidden;html=1;whiteSpace=wrap;labelBackgroundColor=none;strokeColor=#457B9D;fontColor=#1D3557;" parent="lqEG2_-hTy4PG73sZYaS-106" vertex="1">
          <mxGeometry x="60" width="120" height="30" as="geometry">
            <mxRectangle width="120" height="30" as="alternateBounds" />
          </mxGeometry>
        </mxCell>
        <mxCell id="lqEG2_-hTy4PG73sZYaS-109" value="" style="shape=tableRow;horizontal=0;startSize=0;swimlaneHead=0;swimlaneBody=0;fillColor=none;collapsible=0;dropTarget=0;points=[[0,0.5],[1,0.5]];portConstraint=eastwest;top=0;left=0;right=0;bottom=1;html=1;labelBackgroundColor=none;strokeColor=#457B9D;fontColor=#1D3557;" parent="lqEG2_-hTy4PG73sZYaS-102" vertex="1">
          <mxGeometry y="90" width="180" height="30" as="geometry" />
        </mxCell>
        <mxCell id="lqEG2_-hTy4PG73sZYaS-110" value="FK2" style="shape=partialRectangle;connectable=0;fillColor=none;top=0;left=0;bottom=0;right=0;fontStyle=1;overflow=hidden;html=1;whiteSpace=wrap;labelBackgroundColor=none;strokeColor=#457B9D;fontColor=#1D3557;" parent="lqEG2_-hTy4PG73sZYaS-109" vertex="1">
          <mxGeometry width="60" height="30" as="geometry">
            <mxRectangle width="60" height="30" as="alternateBounds" />
          </mxGeometry>
        </mxCell>
        <mxCell id="lqEG2_-hTy4PG73sZYaS-111" value="Id_TiposDeEventos" style="shape=partialRectangle;connectable=0;fillColor=none;top=0;left=0;bottom=0;right=0;align=left;spacingLeft=6;fontStyle=5;overflow=hidden;html=1;whiteSpace=wrap;labelBackgroundColor=none;strokeColor=#457B9D;fontColor=#1D3557;" parent="lqEG2_-hTy4PG73sZYaS-109" vertex="1">
          <mxGeometry x="60" width="120" height="30" as="geometry">
            <mxRectangle width="120" height="30" as="alternateBounds" />
          </mxGeometry>
        </mxCell>
        <mxCell id="lqEG2_-hTy4PG73sZYaS-112" value="" style="shape=tableRow;horizontal=0;startSize=0;swimlaneHead=0;swimlaneBody=0;fillColor=none;collapsible=0;dropTarget=0;points=[[0,0.5],[1,0.5]];portConstraint=eastwest;top=0;left=0;right=0;bottom=0;html=1;labelBackgroundColor=none;strokeColor=#457B9D;fontColor=#1D3557;" parent="lqEG2_-hTy4PG73sZYaS-102" vertex="1">
          <mxGeometry y="120" width="180" height="30" as="geometry" />
        </mxCell>
        <mxCell id="lqEG2_-hTy4PG73sZYaS-113" value="" style="shape=partialRectangle;connectable=0;fillColor=none;top=0;left=0;bottom=0;right=0;editable=1;overflow=hidden;html=1;whiteSpace=wrap;labelBackgroundColor=none;strokeColor=#457B9D;fontColor=#1D3557;" parent="lqEG2_-hTy4PG73sZYaS-112" vertex="1">
          <mxGeometry width="60" height="30" as="geometry">
            <mxRectangle width="60" height="30" as="alternateBounds" />
          </mxGeometry>
        </mxCell>
        <mxCell id="lqEG2_-hTy4PG73sZYaS-114" value="Nome_Evento" style="shape=partialRectangle;connectable=0;fillColor=none;top=0;left=0;bottom=0;right=0;align=left;spacingLeft=6;overflow=hidden;html=1;whiteSpace=wrap;labelBackgroundColor=none;strokeColor=#457B9D;fontColor=#1D3557;" parent="lqEG2_-hTy4PG73sZYaS-112" vertex="1">
          <mxGeometry x="60" width="120" height="30" as="geometry">
            <mxRectangle width="120" height="30" as="alternateBounds" />
          </mxGeometry>
        </mxCell>
        <mxCell id="lqEG2_-hTy4PG73sZYaS-115" value="" style="shape=tableRow;horizontal=0;startSize=0;swimlaneHead=0;swimlaneBody=0;fillColor=none;collapsible=0;dropTarget=0;points=[[0,0.5],[1,0.5]];portConstraint=eastwest;top=0;left=0;right=0;bottom=0;html=1;labelBackgroundColor=none;strokeColor=#457B9D;fontColor=#1D3557;" parent="lqEG2_-hTy4PG73sZYaS-102" vertex="1">
          <mxGeometry y="150" width="180" height="30" as="geometry" />
        </mxCell>
        <mxCell id="lqEG2_-hTy4PG73sZYaS-116" value="" style="shape=partialRectangle;connectable=0;fillColor=none;top=0;left=0;bottom=0;right=0;editable=1;overflow=hidden;html=1;whiteSpace=wrap;labelBackgroundColor=none;strokeColor=#457B9D;fontColor=#1D3557;" parent="lqEG2_-hTy4PG73sZYaS-115" vertex="1">
          <mxGeometry width="60" height="30" as="geometry">
            <mxRectangle width="60" height="30" as="alternateBounds" />
          </mxGeometry>
        </mxCell>
        <mxCell id="lqEG2_-hTy4PG73sZYaS-117" value="Descricao_Evento" style="shape=partialRectangle;connectable=0;fillColor=none;top=0;left=0;bottom=0;right=0;align=left;spacingLeft=6;overflow=hidden;html=1;whiteSpace=wrap;labelBackgroundColor=none;strokeColor=#457B9D;fontColor=#1D3557;" parent="lqEG2_-hTy4PG73sZYaS-115" vertex="1">
          <mxGeometry x="60" width="120" height="30" as="geometry">
            <mxRectangle width="120" height="30" as="alternateBounds" />
          </mxGeometry>
        </mxCell>
        <mxCell id="lqEG2_-hTy4PG73sZYaS-118" value="" style="shape=tableRow;horizontal=0;startSize=0;swimlaneHead=0;swimlaneBody=0;fillColor=none;collapsible=0;dropTarget=0;points=[[0,0.5],[1,0.5]];portConstraint=eastwest;top=0;left=0;right=0;bottom=0;html=1;labelBackgroundColor=none;strokeColor=#457B9D;fontColor=#1D3557;" parent="lqEG2_-hTy4PG73sZYaS-102" vertex="1">
          <mxGeometry y="180" width="180" height="30" as="geometry" />
        </mxCell>
        <mxCell id="lqEG2_-hTy4PG73sZYaS-119" value="" style="shape=partialRectangle;connectable=0;fillColor=none;top=0;left=0;bottom=0;right=0;editable=1;overflow=hidden;html=1;whiteSpace=wrap;labelBackgroundColor=none;strokeColor=#457B9D;fontColor=#1D3557;" parent="lqEG2_-hTy4PG73sZYaS-118" vertex="1">
          <mxGeometry width="60" height="30" as="geometry">
            <mxRectangle width="60" height="30" as="alternateBounds" />
          </mxGeometry>
        </mxCell>
        <mxCell id="lqEG2_-hTy4PG73sZYaS-120" value="Data_Evento" style="shape=partialRectangle;connectable=0;fillColor=none;top=0;left=0;bottom=0;right=0;align=left;spacingLeft=6;overflow=hidden;html=1;whiteSpace=wrap;labelBackgroundColor=none;strokeColor=#457B9D;fontColor=#1D3557;" parent="lqEG2_-hTy4PG73sZYaS-118" vertex="1">
          <mxGeometry x="60" width="120" height="30" as="geometry">
            <mxRectangle width="120" height="30" as="alternateBounds" />
          </mxGeometry>
        </mxCell>
        <mxCell id="lqEG2_-hTy4PG73sZYaS-121" value="" style="edgeStyle=entityRelationEdgeStyle;fontSize=12;html=1;endArrow=ERoneToMany;rounded=0;exitX=1;exitY=0.5;exitDx=0;exitDy=0;entryX=0;entryY=0.5;entryDx=0;entryDy=0;labelBackgroundColor=none;strokeColor=#457B9D;fontColor=default;" parent="LaQATIM5saHFZHndEdmn-1" source="lqEG2_-hTy4PG73sZYaS-103" target="lqEG2_-hTy4PG73sZYaS-64" edge="1">
          <mxGeometry width="100" height="100" relative="1" as="geometry">
            <mxPoint x="650" y="530" as="sourcePoint" />
            <mxPoint x="750" y="430" as="targetPoint" />
          </mxGeometry>
        </mxCell>
        <mxCell id="QrZJVhv06tQUVwA8RFn9-0" value="" style="edgeStyle=entityRelationEdgeStyle;fontSize=12;html=1;endArrow=ERoneToMany;rounded=0;strokeColor=#457B9D;fontColor=default;fillColor=#A8DADC;exitX=1;exitY=0.5;exitDx=0;exitDy=0;labelBackgroundColor=none;" parent="LaQATIM5saHFZHndEdmn-1" source="lqEG2_-hTy4PG73sZYaS-14" target="lqEG2_-hTy4PG73sZYaS-109" edge="1">
          <mxGeometry width="100" height="100" relative="1" as="geometry">
            <mxPoint x="210" y="645" as="sourcePoint" />
            <mxPoint x="540" y="660" as="targetPoint" />
          </mxGeometry>
        </mxCell>
        <mxCell id="QrZJVhv06tQUVwA8RFn9-1" value="" style="edgeStyle=entityRelationEdgeStyle;fontSize=12;html=1;endArrow=ERoneToMany;rounded=0;strokeColor=#457B9D;fontColor=default;fillColor=#A8DADC;exitX=0;exitY=0.5;exitDx=0;exitDy=0;entryX=1;entryY=0.5;entryDx=0;entryDy=0;labelBackgroundColor=none;" parent="LaQATIM5saHFZHndEdmn-1" source="lqEG2_-hTy4PG73sZYaS-30" target="lqEG2_-hTy4PG73sZYaS-106" edge="1">
          <mxGeometry width="100" height="100" relative="1" as="geometry">
            <mxPoint x="540" y="725" as="sourcePoint" />
            <mxPoint x="280" y="660" as="targetPoint" />
          </mxGeometry>
        </mxCell>
        <mxCell id="31z6xVb1ffxRtT9AwIvZ-0" value="Comentario" style="shape=table;startSize=30;container=1;collapsible=1;childLayout=tableLayout;fixedRows=1;rowLines=0;fontStyle=1;align=center;resizeLast=1;html=1;whiteSpace=wrap;labelBackgroundColor=none;fillColor=#A8DADC;strokeColor=#457B9D;fontColor=#1D3557;" parent="LaQATIM5saHFZHndEdmn-1" vertex="1">
          <mxGeometry y="440" width="210" height="180" as="geometry" />
        </mxCell>
        <mxCell id="31z6xVb1ffxRtT9AwIvZ-1" value="" style="shape=tableRow;horizontal=0;startSize=0;swimlaneHead=0;swimlaneBody=0;fillColor=none;collapsible=0;dropTarget=0;points=[[0,0.5],[1,0.5]];portConstraint=eastwest;top=0;left=0;right=0;bottom=0;html=1;labelBackgroundColor=none;strokeColor=#457B9D;fontColor=#1D3557;" parent="31z6xVb1ffxRtT9AwIvZ-0" vertex="1">
          <mxGeometry y="30" width="210" height="30" as="geometry" />
        </mxCell>
        <mxCell id="31z6xVb1ffxRtT9AwIvZ-2" value="PK" style="shape=partialRectangle;connectable=0;fillColor=none;top=0;left=0;bottom=0;right=0;fontStyle=1;overflow=hidden;html=1;whiteSpace=wrap;labelBackgroundColor=none;strokeColor=#457B9D;fontColor=#1D3557;" parent="31z6xVb1ffxRtT9AwIvZ-1" vertex="1">
          <mxGeometry width="60" height="30" as="geometry">
            <mxRectangle width="60" height="30" as="alternateBounds" />
          </mxGeometry>
        </mxCell>
        <mxCell id="31z6xVb1ffxRtT9AwIvZ-3" value="Id_Comentario" style="shape=partialRectangle;connectable=0;fillColor=none;top=0;left=0;bottom=0;right=0;align=left;spacingLeft=6;fontStyle=5;overflow=hidden;html=1;whiteSpace=wrap;labelBackgroundColor=none;strokeColor=#457B9D;fontColor=#1D3557;" parent="31z6xVb1ffxRtT9AwIvZ-1" vertex="1">
          <mxGeometry x="60" width="150" height="30" as="geometry">
            <mxRectangle width="150" height="30" as="alternateBounds" />
          </mxGeometry>
        </mxCell>
        <mxCell id="31z6xVb1ffxRtT9AwIvZ-4" value="" style="shape=tableRow;horizontal=0;startSize=0;swimlaneHead=0;swimlaneBody=0;fillColor=none;collapsible=0;dropTarget=0;points=[[0,0.5],[1,0.5]];portConstraint=eastwest;top=0;left=0;right=0;bottom=0;html=1;labelBackgroundColor=none;strokeColor=#457B9D;fontColor=#1D3557;" parent="31z6xVb1ffxRtT9AwIvZ-0" vertex="1">
          <mxGeometry y="60" width="210" height="30" as="geometry" />
        </mxCell>
        <mxCell id="31z6xVb1ffxRtT9AwIvZ-5" value="FK1" style="shape=partialRectangle;connectable=0;fillColor=none;top=0;left=0;bottom=0;right=0;fontStyle=1;overflow=hidden;html=1;whiteSpace=wrap;labelBackgroundColor=none;strokeColor=#457B9D;fontColor=#1D3557;" parent="31z6xVb1ffxRtT9AwIvZ-4" vertex="1">
          <mxGeometry width="60" height="30" as="geometry">
            <mxRectangle width="60" height="30" as="alternateBounds" />
          </mxGeometry>
        </mxCell>
        <mxCell id="31z6xVb1ffxRtT9AwIvZ-6" value="Id_Usuario" style="shape=partialRectangle;connectable=0;fillColor=none;top=0;left=0;bottom=0;right=0;align=left;spacingLeft=6;fontStyle=5;overflow=hidden;html=1;whiteSpace=wrap;labelBackgroundColor=none;strokeColor=#457B9D;fontColor=#1D3557;" parent="31z6xVb1ffxRtT9AwIvZ-4" vertex="1">
          <mxGeometry x="60" width="150" height="30" as="geometry">
            <mxRectangle width="150" height="30" as="alternateBounds" />
          </mxGeometry>
        </mxCell>
        <mxCell id="31z6xVb1ffxRtT9AwIvZ-7" value="" style="shape=tableRow;horizontal=0;startSize=0;swimlaneHead=0;swimlaneBody=0;fillColor=none;collapsible=0;dropTarget=0;points=[[0,0.5],[1,0.5]];portConstraint=eastwest;top=0;left=0;right=0;bottom=1;html=1;labelBackgroundColor=none;strokeColor=#457B9D;fontColor=#1D3557;" parent="31z6xVb1ffxRtT9AwIvZ-0" vertex="1">
          <mxGeometry y="90" width="210" height="30" as="geometry" />
        </mxCell>
        <mxCell id="31z6xVb1ffxRtT9AwIvZ-8" value="FK2" style="shape=partialRectangle;connectable=0;fillColor=none;top=0;left=0;bottom=0;right=0;fontStyle=1;overflow=hidden;html=1;whiteSpace=wrap;labelBackgroundColor=none;strokeColor=#457B9D;fontColor=#1D3557;" parent="31z6xVb1ffxRtT9AwIvZ-7" vertex="1">
          <mxGeometry width="60" height="30" as="geometry">
            <mxRectangle width="60" height="30" as="alternateBounds" />
          </mxGeometry>
        </mxCell>
        <mxCell id="31z6xVb1ffxRtT9AwIvZ-9" value="Id_Evento" style="shape=partialRectangle;connectable=0;fillColor=none;top=0;left=0;bottom=0;right=0;align=left;spacingLeft=6;fontStyle=5;overflow=hidden;html=1;whiteSpace=wrap;labelBackgroundColor=none;strokeColor=#457B9D;fontColor=#1D3557;" parent="31z6xVb1ffxRtT9AwIvZ-7" vertex="1">
          <mxGeometry x="60" width="150" height="30" as="geometry">
            <mxRectangle width="150" height="30" as="alternateBounds" />
          </mxGeometry>
        </mxCell>
        <mxCell id="31z6xVb1ffxRtT9AwIvZ-10" value="" style="shape=tableRow;horizontal=0;startSize=0;swimlaneHead=0;swimlaneBody=0;fillColor=none;collapsible=0;dropTarget=0;points=[[0,0.5],[1,0.5]];portConstraint=eastwest;top=0;left=0;right=0;bottom=0;html=1;labelBackgroundColor=none;strokeColor=#457B9D;fontColor=#1D3557;" parent="31z6xVb1ffxRtT9AwIvZ-0" vertex="1">
          <mxGeometry y="120" width="210" height="30" as="geometry" />
        </mxCell>
        <mxCell id="31z6xVb1ffxRtT9AwIvZ-11" value="" style="shape=partialRectangle;connectable=0;fillColor=none;top=0;left=0;bottom=0;right=0;editable=1;overflow=hidden;html=1;whiteSpace=wrap;labelBackgroundColor=none;strokeColor=#457B9D;fontColor=#1D3557;" parent="31z6xVb1ffxRtT9AwIvZ-10" vertex="1">
          <mxGeometry width="60" height="30" as="geometry">
            <mxRectangle width="60" height="30" as="alternateBounds" />
          </mxGeometry>
        </mxCell>
        <mxCell id="31z6xVb1ffxRtT9AwIvZ-12" value="Comentario_Exibe" style="shape=partialRectangle;connectable=0;fillColor=none;top=0;left=0;bottom=0;right=0;align=left;spacingLeft=6;overflow=hidden;html=1;whiteSpace=wrap;labelBackgroundColor=none;strokeColor=#457B9D;fontColor=#1D3557;" parent="31z6xVb1ffxRtT9AwIvZ-10" vertex="1">
          <mxGeometry x="60" width="150" height="30" as="geometry">
            <mxRectangle width="150" height="30" as="alternateBounds" />
          </mxGeometry>
        </mxCell>
        <mxCell id="31z6xVb1ffxRtT9AwIvZ-13" value="" style="shape=tableRow;horizontal=0;startSize=0;swimlaneHead=0;swimlaneBody=0;fillColor=none;collapsible=0;dropTarget=0;points=[[0,0.5],[1,0.5]];portConstraint=eastwest;top=0;left=0;right=0;bottom=0;html=1;labelBackgroundColor=none;strokeColor=#457B9D;fontColor=#1D3557;" parent="31z6xVb1ffxRtT9AwIvZ-0" vertex="1">
          <mxGeometry y="150" width="210" height="30" as="geometry" />
        </mxCell>
        <mxCell id="31z6xVb1ffxRtT9AwIvZ-14" value="" style="shape=partialRectangle;connectable=0;fillColor=none;top=0;left=0;bottom=0;right=0;editable=1;overflow=hidden;html=1;whiteSpace=wrap;labelBackgroundColor=none;strokeColor=#457B9D;fontColor=#1D3557;" parent="31z6xVb1ffxRtT9AwIvZ-13" vertex="1">
          <mxGeometry width="60" height="30" as="geometry">
            <mxRectangle width="60" height="30" as="alternateBounds" />
          </mxGeometry>
        </mxCell>
        <mxCell id="31z6xVb1ffxRtT9AwIvZ-15" value="Comentario_Descricao" style="shape=partialRectangle;connectable=0;fillColor=none;top=0;left=0;bottom=0;right=0;align=left;spacingLeft=6;overflow=hidden;html=1;whiteSpace=wrap;labelBackgroundColor=none;strokeColor=#457B9D;fontColor=#1D3557;" parent="31z6xVb1ffxRtT9AwIvZ-13" vertex="1">
          <mxGeometry x="60" width="150" height="30" as="geometry">
            <mxRectangle width="150" height="30" as="alternateBounds" />
          </mxGeometry>
        </mxCell>
        <mxCell id="31z6xVb1ffxRtT9AwIvZ-19" value="" style="edgeStyle=entityRelationEdgeStyle;fontSize=12;html=1;endArrow=ERoneToMany;rounded=0;exitX=0;exitY=0.5;exitDx=0;exitDy=0;entryX=1;entryY=0.5;entryDx=0;entryDy=0;labelBackgroundColor=none;strokeColor=#457B9D;fontColor=default;" parent="LaQATIM5saHFZHndEdmn-1" source="lqEG2_-hTy4PG73sZYaS-43" target="31z6xVb1ffxRtT9AwIvZ-4" edge="1">
          <mxGeometry width="100" height="100" relative="1" as="geometry">
            <mxPoint x="170" y="550" as="sourcePoint" />
            <mxPoint x="270" y="450" as="targetPoint" />
          </mxGeometry>
        </mxCell>
        <mxCell id="31z6xVb1ffxRtT9AwIvZ-20" value="" style="edgeStyle=entityRelationEdgeStyle;fontSize=12;html=1;endArrow=ERoneToMany;rounded=0;exitX=0;exitY=0.5;exitDx=0;exitDy=0;entryX=1;entryY=0.5;entryDx=0;entryDy=0;labelBackgroundColor=none;strokeColor=#457B9D;fontColor=default;" parent="LaQATIM5saHFZHndEdmn-1" source="lqEG2_-hTy4PG73sZYaS-103" target="31z6xVb1ffxRtT9AwIvZ-7" edge="1">
          <mxGeometry width="100" height="100" relative="1" as="geometry">
            <mxPoint x="170" y="450" as="sourcePoint" />
            <mxPoint x="270" y="350" as="targetPoint" />
          </mxGeometry>
        </mxCell>
      </root>
    </mxGraphModel>
  </diagram>
</mxfile>
